<svg id="visual" viewBox="0 0 1800 100" width="1800" height="100" xmlns="http://www.w3.org/2000/svg" xmlns:xlink="http://www.w3.org/1999/xlink" version="1.1"><rect x="0" y="0" width="1800" height="100" fill="#ed8e07"></rect><path d="M0 47L15 42.2C30 37.3 60 27.7 90 29.2C120 30.7 150 43.3 180 46C210 48.7 240 41.3 270 35.8C300 30.3 330 26.7 360 25.8C390 25 420 27 450 28.2C480 29.3 510 29.7 540 27.2C570 24.7 600 19.3 630 20.5C660 21.7 690 29.3 720 29.5C750 29.7 780 22.3 810 20.5C840 18.7 870 22.3 900 24.2C930 26 960 26 990 26.2C1020 26.3 1050 26.7 1080 29.5C1110 32.3 1140 37.7 1170 36.3C1200 35 1230 27 1260 22.7C1290 18.3 1320 17.7 1350 17.8C1380 18 1410 19 1440 22C1470 25 1500 30 1530 31.5C1560 33 1590 31 1620 30.7C1650 30.3 1680 31.7 1710 36.3C1740 41 1770 49 1785 53L1800 57L1800 0L1785 0C1770 0 1740 0 1710 0C1680 0 1650 0 1620 0C1590 0 1560 0 1530 0C1500 0 1470 0 1440 0C1410 0 1380 0 1350 0C1320 0 1290 0 1260 0C1230 0 1200 0 1170 0C1140 0 1110 0 1080 0C1050 0 1020 0 990 0C960 0 930 0 900 0C870 0 840 0 810 0C780 0 750 0 720 0C690 0 660 0 630 0C600 0 570 0 540 0C510 0 480 0 450 0C420 0 390 0 360 0C330 0 300 0 270 0C240 0 210 0 180 0C150 0 120 0 90 0C60 0 30 0 15 0L0 0Z" fill="#ffffff" stroke-linecap="round" stroke-linejoin="miter"></path></svg>