<svg id="visual" viewBox="0 0 960 100" width="960" height="100" xmlns="http://www.w3.org/2000/svg" xmlns:xlink="http://www.w3.org/1999/xlink" version="1.1"><rect x="0" y="0" width="960" height="100" fill="#fff"></rect><path d="M0 55L8.8 53C17.7 51 35.3 47 53.2 41.5C71 36 89 29 106.8 25.7C124.7 22.3 142.3 22.7 160 29.5C177.7 36.3 195.3 49.7 213.2 56.2C231 62.7 249 62.3 266.8 58C284.7 53.7 302.3 45.3 320 45C337.7 44.7 355.3 52.3 373.2 60.2C391 68 409 76 426.8 72.5C444.7 69 462.3 54 480 48.8C497.7 43.7 515.3 48.3 533.2 51.2C551 54 569 55 586.8 59.5C604.7 64 622.3 72 640 64.3C657.7 56.7 675.3 33.3 693.2 29.3C711 25.3 729 40.7 746.8 47.2C764.7 53.7 782.3 51.3 800 44.7C817.7 38 835.3 27 853.2 23.7C871 20.3 889 24.7 906.8 28.8C924.7 33 942.3 37 951.2 39L960 41L960 101L951.2 101C942.3 101 924.7 101 906.8 101C889 101 871 101 853.2 101C835.3 101 817.7 101 800 101C782.3 101 764.7 101 746.8 101C729 101 711 101 693.2 101C675.3 101 657.7 101 640 101C622.3 101 604.7 101 586.8 101C569 101 551 101 533.2 101C515.3 101 497.7 101 480 101C462.3 101 444.7 101 426.8 101C409 101 391 101 373.2 101C355.3 101 337.7 101 320 101C302.3 101 284.7 101 266.8 101C249 101 231 101 213.2 101C195.3 101 177.7 101 160 101C142.3 101 124.7 101 106.8 101C89 101 71 101 53.2 101C35.3 101 17.7 101 8.8 101L0 101Z" fill="#ed8e07" stroke-linecap="round" stroke-linejoin="miter"></path></svg>