<svg id="visual" viewBox="0 0 960 100" width="960" height="270" xmlns="http://www.w3.org/2000/svg" xmlns:xlink="http://www.w3.org/1999/xlink" version="1.1"><rect x="0" y="0" width="960" height="270" fill="#fff"></rect><path d="M0 166L6.7 160.2C13.3 154.3 26.7 142.7 40 135C53.3 127.3 66.7 123.7 80 119.3C93.3 115 106.7 110 120 115.8C133.3 121.7 146.7 138.3 160 149C173.3 159.7 186.7 164.3 200 157.8C213.3 151.3 226.7 133.7 240 131.5C253.3 129.3 266.7 142.7 280 140.2C293.3 137.7 306.7 119.3 320 113.5C333.3 107.7 346.7 114.3 360 119.5C373.3 124.7 386.7 128.3 400 129.7C413.3 131 426.7 130 440 130.2C453.3 130.3 466.7 131.7 480 128.5C493.3 125.3 506.7 117.7 520 118.2C533.3 118.7 546.7 127.3 560 128.8C573.3 130.3 586.7 124.7 600 126.7C613.3 128.7 626.7 138.3 640 146C653.3 153.7 666.7 159.3 680 152.2C693.3 145 706.7 125 720 124.2C733.3 123.3 746.7 141.7 760 147.5C773.3 153.3 786.7 146.7 800 136C813.3 125.3 826.7 110.7 840 109.7C853.3 108.7 866.7 121.3 880 124.3C893.3 127.3 906.7 120.7 920 120.2C933.3 119.7 946.7 125.3 953.3 128.2L960 131L960 271L953.3 271C946.7 271 933.3 271 920 271C906.7 271 893.3 271 880 271C866.7 271 853.3 271 840 271C826.7 271 813.3 271 800 271C786.7 271 773.3 271 760 271C746.7 271 733.3 271 720 271C706.7 271 693.3 271 680 271C666.7 271 653.3 271 640 271C626.7 271 613.3 271 600 271C586.7 271 573.3 271 560 271C546.7 271 533.3 271 520 271C506.7 271 493.3 271 480 271C466.7 271 453.3 271 440 271C426.7 271 413.3 271 400 271C386.7 271 373.3 271 360 271C346.7 271 333.3 271 320 271C306.7 271 293.3 271 280 271C266.7 271 253.3 271 240 271C226.7 271 213.3 271 200 271C186.7 271 173.3 271 160 271C146.7 271 133.3 271 120 271C106.7 271 93.3 271 80 271C66.7 271 53.3 271 40 271C26.7 271 13.3 271 6.7 271L0 271Z" fill="#ed8e07" stroke-linecap="round" stroke-linejoin="miter"></path></svg>