<svg id="visual" viewBox="0 0 960 100" width="960" height="100" xmlns="http://www.w3.org/2000/svg" xmlns:xlink="http://www.w3.org/1999/xlink" version="1.1"><rect x="0" y="0" width="960" height="100" fill="#fff"></rect><path d="M0 27L8.8 31.7C17.7 36.3 35.3 45.7 53.2 47C71 48.3 89 41.7 106.8 36.5C124.7 31.3 142.3 27.7 160 33.5C177.7 39.3 195.3 54.7 213.2 61.7C231 68.7 249 67.3 266.8 59.2C284.7 51 302.3 36 320 39C337.7 42 355.3 63 373.2 68.3C391 73.7 409 63.3 426.8 58C444.7 52.7 462.3 52.3 480 59.5C497.7 66.7 515.3 81.3 533.2 86.8C551 92.3 569 88.7 586.8 86.3C604.7 84 622.3 83 640 68.8C657.7 54.7 675.3 27.3 693.2 13.8C711 0.3 729 0.7 746.8 6.2C764.7 11.7 782.3 22.3 800 33.3C817.7 44.3 835.3 55.7 853.2 63.2C871 70.7 889 74.3 906.8 64.2C924.7 54 942.3 30 951.2 18L960 6L960 0L951.2 0C942.3 0 924.7 0 906.8 0C889 0 871 0 853.2 0C835.3 0 817.7 0 800 0C782.3 0 764.7 0 746.8 0C729 0 711 0 693.2 0C675.3 0 657.7 0 640 0C622.3 0 604.7 0 586.8 0C569 0 551 0 533.2 0C515.3 0 497.7 0 480 0C462.3 0 444.7 0 426.8 0C409 0 391 0 373.2 0C355.3 0 337.7 0 320 0C302.3 0 284.7 0 266.8 0C249 0 231 0 213.2 0C195.3 0 177.7 0 160 0C142.3 0 124.7 0 106.8 0C89 0 71 0 53.2 0C35.3 0 17.7 0 8.8 0L0 0Z" fill="#ed8e07" stroke-linecap="round" stroke-linejoin="miter"></path></svg>