<svg id="visual" viewBox="0 0 1800 500" width="1800" height="500" xmlns="http://www.w3.org/2000/svg" xmlns:xlink="http://www.w3.org/1999/xlink" version="1.1"><rect x="0" y="0" width="1800" height="500" fill="#ed8e07"></rect><path d="M0 60L14.3 65.3C28.7 70.7 57.3 81.3 85.8 79.7C114.3 78 142.7 64 171.2 62.2C199.7 60.3 228.3 70.7 257 78C285.7 85.3 314.3 89.7 343 87.5C371.7 85.3 400.3 76.7 428.8 74.3C457.3 72 485.7 76 514.2 84C542.7 92 571.3 104 600 99.3C628.7 94.7 657.3 73.3 685.8 65.5C714.3 57.7 742.7 63.3 771.2 77.8C799.7 92.3 828.3 115.7 857 112.7C885.7 109.7 914.3 80.3 943 69.5C971.7 58.7 1000.3 66.3 1028.8 70.7C1057.3 75 1085.7 76 1114.2 78.2C1142.7 80.3 1171.3 83.7 1200 79.7C1228.7 75.7 1257.3 64.3 1285.8 72.5C1314.3 80.7 1342.7 108.3 1371.2 118.3C1399.7 128.3 1428.3 120.7 1457 117.3C1485.7 114 1514.3 115 1543 105.5C1571.7 96 1600.3 76 1628.8 71.3C1657.3 66.7 1685.7 77.3 1714.2 82.2C1742.7 87 1771.3 86 1785.7 85.5L1800 85L1800 0L1785.7 0C1771.3 0 1742.7 0 1714.2 0C1685.7 0 1657.3 0 1628.8 0C1600.3 0 1571.7 0 1543 0C1514.3 0 1485.7 0 1457 0C1428.3 0 1399.7 0 1371.2 0C1342.7 0 1314.3 0 1285.8 0C1257.3 0 1228.7 0 1200 0C1171.3 0 1142.7 0 1114.2 0C1085.7 0 1057.3 0 1028.8 0C1000.3 0 971.7 0 943 0C914.3 0 885.7 0 857 0C828.3 0 799.7 0 771.2 0C742.7 0 714.3 0 685.8 0C657.3 0 628.7 0 600 0C571.3 0 542.7 0 514.2 0C485.7 0 457.3 0 428.8 0C400.3 0 371.7 0 343 0C314.3 0 285.7 0 257 0C228.3 0 199.7 0 171.2 0C142.7 0 114.3 0 85.8 0C57.3 0 28.7 0 14.3 0L0 0Z" fill="#ffffff" stroke-linecap="round" stroke-linejoin="miter"></path></svg>