<?xml version="1.0" encoding="UTF-8" standalone="no" ?>
<!DOCTYPE svg PUBLIC "-//W3C//DTD SVG 1.1//EN" "http://www.w3.org/Graphics/SVG/1.1/DTD/svg11.dtd">
<svg xmlns="http://www.w3.org/2000/svg" xmlns:xlink="http://www.w3.org/1999/xlink" version="1.1" width="500" height="400" viewBox="0 0 500 400" xml:space="preserve">
<desc>Created with Fabric.js 5.3.0</desc>
<defs>
</defs>
<g transform="matrix(1.1428720129 0 0 1 247 200)" id="dbXWe-Z4lmvsGbgSBIjmm"  >
<g style=""   >
		<g transform="matrix(1 0 0 1 -108.2007796869 3.3123948016)" id="p8F3LS76mQCdh1Qol3edb"  >
<path style="stroke: rgb(132,84,20); stroke-width: 2; stroke-dasharray: none; stroke-linecap: butt; stroke-dashoffset: 0; stroke-linejoin: miter; stroke-miterlimit: 4; fill: none; fill-rule: nonzero; opacity: 1;" vector-effect="non-scaling-stroke"  transform=" translate(-141.7992203131, -253.3123948016)" d="M 113.04 310.32 C 107.9 324.77 116.42 335.61 119.79 349.16 C 122.14 358.61 121.12 368.73 121.1 378.25 C 121.08 385.38 123.29 394.24 129.11 398.91 C 134.03 402.88 143.75 399.23 149.1 396.84 Q 152.51 395.32 154.34 392.86 Q 157.31 388.86 157.89 384.05 C 159.87 367.58 160.36 350.74 159.03 334.27 C 158.9868156996557 333.6948547136136 159.23029091341056 333.136734608237 159.68 332.78 C 163.24 329.93 169.86 325.78 171.62 321.94 C 174.74 315.12 169.98 305.74 168.82 298.95 Q 168.13 294.96 168.22 291.75 C 168.76 273.95 166.66 259.19 168.4 241.35 C 169.2 233.24 170.54 222.41 179.56 219.65 C 187.05 217.36 192.65 225.33 199.93 226.1 C 205.6 226.71 213.96 224.37 215.81 218.1 C 217.73 211.61 216.87 204.42 216.76 198.25 C 216.57 187.24 219.39 176.6 219.87 165.71 Q 220.86 143.52 214.68 122.07 Q 213.79 118.98 210.37 114.79 C 203.81 106.75 195.24 107.79 186.51 110.98 Q 181.5 112.81 180.31 113.05 C 173.18 114.52 164.95 113.58 157.76 112.85 C 138.66 110.93 119.46 109.35 100.5 106.31 C 92.86 105.08 82.57 107.03 76.17 112.2 C 72.17 115.42 70.03 120.59 69.44 123.99 Q 67.82 133.25 65.52 154.91 C 64.36 165.73 60.85 176.98 65.87 187.38 C 67.08 189.89 70.15 191.03 71.65 192.6 Q 74.71 195.79 75.27 200.02 C 76.39 208.55 64.74 226.52 77.86 229.39 C 81.38 230.16 86.87 227.45 89.37 225.37 C 93.43 221.98 101.41 218.61 105.51 223.48 C 109.98 228.79 110.01 234.87 110.52 243.25 Q 110.97 250.75 109.34 264.11 C 108.58 270.36 106.89 277 105.63 283.48 C 103.77 293.02 106.89 302.09 112.89 309.48 Q 113.2 309.86 113.04 310.32" stroke-linecap="round" />
</g>
		<g transform="matrix(1 0 0 1 110.2098430901 5.3712925501)" id="KiGA9X5ckaFSoLWlrUral"  >
<path style="stroke: rgb(132,84,20); stroke-width: 2; stroke-dasharray: none; stroke-linecap: butt; stroke-dashoffset: 0; stroke-linejoin: miter; stroke-miterlimit: 4; fill: none; fill-rule: nonzero; opacity: 1;" vector-effect="non-scaling-stroke"  transform=" translate(-360.2098430901, -255.3712925501)" d="M 404.12 273.41 C 405.9 272.23 407.93 271.62 409.48 270.32 C 412.5 267.76 414.51 265.77 416.9 262.11 Q 419.05 258.83 421.92 256.13 C 424.17 254.01 427.08 254.44 429.36 252.28 C 432.31 249.49 433.95 247.06 434.71 242.75 Q 435.87 236.08 438.59 229.88 C 442.03 222.03 439 215.66 440.63 207.89 Q 442.16 200.55 440.52 193.16 Q 440.06 191.09 441.18 186.64 C 443.24 178.44 442.24 170.15 439.48 162.24 Q 438.79 160.29 438.91 158.12 C 439.82 141.47 423.62 127.23 411.3 118.79 C 409.96 117.87 408.71 116.49 407.1 115.55 C 402.67 112.99 399.23 109.95 393.99 109.82 C 381.5 109.5 368.84 112.18 356.5 113.99 Q 349.24 115.05 341.74 111.49 Q 338.04 109.74 335.86 109.4 Q 325.8 107.86 316.85 112.39 Q 312.25 114.72 310.48 115.4 C 300.29 119.35 290.04 121.51 287.71 132.62 C 286.55 138.17 288.75 141.77 285.12 147.13 C 280.43 154.06 278.67 159.05 278.36 167.75 C 277.33 196.18 280.18 223.98 282.68 252.23 Q 283.06 256.48 282.44 260.74 Q 279.67 279.83 279.05 287.75 Q 277.87 302.88 278.99 309.51 Q 280.4 317.91 287.55 322.54 Q 289.54 323.82 289.68 325.4 Q 290.29 332.38 291.38 339.3 C 292.24 344.7 290.01 349.59 291.03 354.75 C 291.93 359.31 293.46 365.01 294.22 370.47 C 295.09 376.67 295.83 385.22 298.63 390.52 C 301.89 396.67 311.35 401.79 317.9 401.85 C 322.94 401.91 327.45 398.59 332.5 399.51 C 338.54 400.61 346.36 402.89 352.01 400.03 C 356.45 397.78 365.18 392.52 368.53 396.47 C 370.11 398.33 371.47 400.6 373.74 401.51 C 382.55 405.05 391.92 395.42 395.71 388.58 Q 397.73 384.93 399.61 382.91 C 404.95 377.18 413.03 371.58 415.72 364.03 C 417.95 357.81 421.65 352.5 424.97 346.91 C 426.1 345.02 427.41 342.01 427.43 340.22 Q 427.55 329.09 430.11 318.27 C 430.37 317.2 430.26 315.66 429.95 314.59 Q 428.03 307.91 427.32 300.99 C 427.03 298.13 424 295.14 422.33 292.9 C 420.28 290.17 417.48 288.41 415.03 286.02 C 413.39 284.42 411.55 284.03 409.98 282.07 C 407.91 279.5 405.21 277.23 403.89 274.19 Q 403.68 273.7 404.12 273.41" stroke-linecap="round" />
</g>
		<g transform="matrix(1 0 0 1 108.0576850401 -26.170394497)" id="wEaTCd_2rX_tR3C7g-aNq"  >
<path style="stroke: rgb(132,84,20); stroke-width: 2; stroke-dasharray: none; stroke-linecap: butt; stroke-dashoffset: 0; stroke-linejoin: miter; stroke-miterlimit: 4; fill: none; fill-rule: nonzero; opacity: 1;" vector-effect="non-scaling-stroke"  transform=" translate(-358.0576850401, -223.829605503)" d="M 366.78 224.28 C 370.8 218.1 373.66 212.7 371.99 204.99 Q 370.67 198.92 364.8 196.92 C 362.87 196.26 361.54 195.75 359.96 194.27 Q 356.14 190.71 351.23 188.8 C 346.62 187.02 343.65 193.02 343.64 196.59 Q 343.64 198.08 345.33 203.08 Q 347.2 208.56 346.9 214.5 Q 346.28 227.12 346.21 239.75 C 346.18 246.73 345.96 252.02 349.04 256.71 C 351.78 260.89 356.42 259.23 358.66 255.72 Q 361.5 251.27 363.07 246.29 C 364.35 242.21 364.28 237.12 364.72 232.56 Q 365.29 226.58 366.78 224.28" stroke-linecap="round" />
</g>
		<g transform="matrix(1 0 0 1 107.0393201076 69.9365091261)" id="om9jzQ6V5yTFZJdWyC4-1"  >
<path style="stroke: rgb(132,84,20); stroke-width: 2; stroke-dasharray: none; stroke-linecap: butt; stroke-dashoffset: 0; stroke-linejoin: miter; stroke-miterlimit: 4; fill: none; fill-rule: nonzero; opacity: 1;" vector-effect="non-scaling-stroke"  transform=" translate(-357.0393201076, -319.9365091261)" d="M 355.74 346.58 Q 359.24 341.3 362.22 337.17 Q 365.01 333.31 366.07 330.14 Q 370.54 316.73 365.88 303.32 Q 364.71 299.94 362.81 297.73 Q 360.3 294.79 357.49 293.91 C 348.66 291.13 347.37 297.2 346.8 304.25 Q 346.07 313.37 344.88 322.43 C 344.08 328.49 345.87 333.89 346.81 339.8 C 346.84864617705625 340.06197143070204 346.9891699067574 340.2961776468707 347.2 340.45 L 355.51 346.62 C 355.5453284860049 346.6466044492858 355.5900931396801 346.6573994768498 355.63366466441295 346.6498218203745 C 355.6772361891458 346.6422441638992 355.71572789972123 346.6169697686395 355.74 346.58" stroke-linecap="round" />
</g>
		<g transform="matrix(1 0 0 1 -108.7239824108 2.7913204595)" id="dVdAoUXo8JB4FAmv5v7jM"  >
<path style="stroke: none; stroke-width: 1; stroke-dasharray: none; stroke-linecap: butt; stroke-dashoffset: 0; stroke-linejoin: miter; stroke-miterlimit: 4; fill: rgb(27,26,32); fill-rule: nonzero; opacity: 1;"  transform=" translate(-141.2760175892, -252.7913204595)" d="M 83.49 256.59 C 83.4931409336905 256.47413164513546 83.44709041948073 256.3623477973111 83.36324561365758 256.2823141190254 C 83.27940080783443 256.2022804407396 83.16559708080663 256.1614761492009 83.05 256.17 C 68.13 257.19 56.79 250.33 49.07 237.95 C 46.59 233.97 45 226.64 45.18 221.8 Q 45.45 214.54 46.7 209.49 Q 47.51 206.22 45.71 204.29 Q 42.97 201.35 41.38 197.66 Q 34.95 182.8 37.21 166.25 C 38.86 154.16 40.23 146.75 41.15 134.72 C 41.6 128.79 42.61 121.13 44.54 114.78 C 46.89 107.07 49.16 102.84 54.56 96.32 C 58.05 92.11 64.04 87.73 69.28 85.27 Q 85.97 77.44 105.99 80.15 C 117.79 81.75 129.81 83.6 141.37 84.63 C 151.81 85.56 162.36 86.85 172.85 87 Q 174.86 87.02 177.04 86.25 C 190.96 81.32 204.22 79.85 217.85 86.82 Q 219.16 87.49 221.29 89.14 C 222.79 90.31 224.45 91.15 225.75 92.46 Q 230.56 97.29 231.71 98.79 C 240.72 110.49 245.05 130.08 245.83 144 Q 247.01 164.95 245.8 174.5 Q 244.87 181.83 243.93 189.16 C 243.03 196.18 243.35 202.72 243.63 209.66 C 243.93 216.81 241.67 228.36 236.85 234.9 C 235.25 237.07 234.05 239.26 232.03 241.03 C 229.44 243.31 227.47 245.23 224.28 246.79 C 214.59 251.51 206.13 253.82 195.23 252.41 C 194.983182168953 252.3810928278638 194.73590628465678 252.45911959265445 194.5518779912054 252.62397827220465 C 194.36784969775402 252.78883695175486 194.2650634312194 253.02440753041682 194.27 253.27 C 194.46 265.61 195.1 277.86 194.93 290.21 C 194.82 298.29 198.59 305.56 199.11 313.53 Q 199.78 323.81 195.75 333.48 C 193.99 337.7 189.75 342.09 186.54 345.55 C 186.3218141348228 345.7938603252221 186.20705427616969 346.11303618210104 186.22 346.44 C 186.86 358.81 184.88 370.49 184.58 382 Q 184.25 394.56 178.04 405.25 C 176.31 408.23 173.79 410.6 171.44 413.29 C 169.72 415.26 167.75 415.96 165.82 417.51 Q 163.62 419.27 159.58 421.06 C 141.39 429.12 122.26 430.84 107.67 415.01 C 102.74 409.65 98.41 401.51 96.81 394.42 C 94.16 382.69 94.57 374.3 94.75 363.68 C 94.89 355.24 91.53 348.22 88.67 340.54 Q 84.59 329.62 84.93 318.05 Q 85.01 315.23 84.18 313.08 C 82.76 309.46 81.12 306.57 79.96 302.28 C 77.63 293.7 78.61 282.66 80.47 273.74 C 81.62 268.22 83.41 262.23 83.49 256.59 Z M 113.04 310.32 C 107.9 324.77 116.42 335.61 119.79 349.16 C 122.14 358.61 121.12 368.73 121.1 378.25 C 121.08 385.38 123.29 394.24 129.11 398.91 C 134.03 402.88 143.75 399.23 149.1 396.84 Q 152.51 395.32 154.34 392.86 Q 157.31 388.86 157.89 384.05 C 159.87 367.58 160.36 350.74 159.03 334.27 C 158.9868156996557 333.6948547136136 159.23029091341056 333.136734608237 159.68 332.78 C 163.24 329.93 169.86 325.78 171.62 321.94 C 174.74 315.12 169.98 305.74 168.82 298.95 Q 168.13 294.96 168.22 291.75 C 168.76 273.95 166.66 259.19 168.4 241.35 C 169.2 233.24 170.54 222.41 179.56 219.65 C 187.05 217.36 192.65 225.33 199.93 226.1 C 205.6 226.71 213.96 224.37 215.81 218.1 C 217.73 211.61 216.87 204.42 216.76 198.25 C 216.57 187.24 219.39 176.6 219.87 165.71 Q 220.86 143.52 214.68 122.07 Q 213.79 118.98 210.37 114.79 C 203.81 106.75 195.24 107.79 186.51 110.98 Q 181.5 112.81 180.31 113.05 C 173.18 114.52 164.95 113.58 157.76 112.85 C 138.66 110.93 119.46 109.35 100.5 106.31 C 92.86 105.08 82.57 107.03 76.17 112.2 C 72.17 115.42 70.03 120.59 69.44 123.99 Q 67.82 133.25 65.52 154.91 C 64.36 165.73 60.85 176.98 65.87 187.38 C 67.08 189.89 70.15 191.03 71.65 192.6 Q 74.71 195.79 75.27 200.02 C 76.39 208.55 64.74 226.52 77.86 229.39 C 81.38 230.16 86.87 227.45 89.37 225.37 C 93.43 221.98 101.41 218.61 105.51 223.48 C 109.98 228.79 110.01 234.87 110.52 243.25 Q 110.97 250.75 109.34 264.11 C 108.58 270.36 106.89 277 105.63 283.48 C 103.77 293.02 106.89 302.09 112.89 309.48 Q 113.2 309.86 113.04 310.32 Z" stroke-linecap="round" />
</g>
		<g transform="matrix(1 0 0 1 110.5771950184 5.0264065594)" id="rz3JW9T6GmtrrUbXXU0lZ"  >
<path style="stroke: none; stroke-width: 1; stroke-dasharray: none; stroke-linecap: butt; stroke-dashoffset: 0; stroke-linejoin: miter; stroke-miterlimit: 4; fill: rgb(27,26,32); fill-rule: nonzero; opacity: 1;"  transform=" translate(-360.5771950184, -255.0264065594)" d="M 442.88 276.08 Q 443.82 277.75 445.32 278.98 Q 445.76 279.34 446.01 279.84 C 447.44 282.67 449.56 285.52 450.69 287.99 Q 453.21 293.49 453.73 299.57 Q 453.96 302.27 454.81 304.79 C 457.87 313.83 456.98 321.12 454.59 331.07 C 453.69 334.79 453.81 338.22 453.61 342 Q 453.09 351.72 447.96 359.87 Q 447.42 360.72 446.86 361.86 C 445.39 364.8 443.64 367.14 441.96 369.91 C 440.67 372.01 440.09 374.41 438.97 376.71 Q 433.69 387.55 423.02 396.77 Q 418.71 400.49 415.46 406.86 C 414.22 409.28 412.4 410.83 410.74 412.91 C 408.45 415.77 404.43 419.5 401.22 421.19 C 396.44 423.71 391.1 427.06 385.65 427.83 Q 378.25 428.88 370.83 428.04 C 367.52 427.67 364.68 426.36 361.6 425.01 C 361.30097292983555 424.87609512142956 360.9590270701645 424.87609512142956 360.66 425.01 C 352.34 428.84 342.87 428.62 333.76 426.68 C 329.95 425.87 327.91 427.62 324.39 427.88 Q 314.52 428.61 310.75 427.81 Q 301.65 425.9 298.05 423.65 C 295.65 422.15 292.88 421.1 290.75 419.67 C 283.67 414.87 278.13 408.97 274.48 401.42 C 271.47 395.19 270.02 387.28 268.85 380.27 C 267.25 370.72 265.19 361.38 264.49 352.25 C 264.02 346.03 267.67 339.37 262.2 334.63 Q 260.68 333.32 259.87 331.88 C 257.29 327.33 254.63 323.29 253.69 317.74 C 252.6 311.28 251.69 301.44 252.26 294.5 C 253.08 284.62 253.68 274.65 255.04 264.83 C 255.61 260.72 256.29 256.91 255.98 252.7 Q 255.3 243.62 254.64 234.54 Q 253.59 220.14 252.54 205.74 C 251.23 187.9 250.56 171.47 253.79 152.8 C 254.78 147.05 257.34 142.33 259.74 137.22 Q 260.67 135.23 260.83 132.07 C 261.19 124.87 264.9 114.85 269.35 110.03 C 270.86 108.4 272.88 105.2 274.34 104.33 C 277.16 102.65 280.27 99.44 284.09 97.47 Q 285.86 96.57 289 95.36 Q 299.49 91.32 309.71 86.66 Q 312.87 85.22 315.99 84.57 Q 319.26 83.88 322.54 83.26 Q 337.8 80.36 351.77 86.93 Q 353.4 87.7 356.53 87.15 Q 375.54 83.81 390.75 83.44 C 397.55 83.28 405.03 84.49 411.54 87.4 C 417.09 89.88 420.51 92.81 424.8 95.77 C 428.81 98.53 432.04 101.26 435.72 103.97 C 438.32 105.87 440.19 108.23 442.76 110.11 C 444.92 111.7 446.35 114.1 447.98 115.74 C 451.67 119.44 453.97 123.24 456.69 127.29 C 459.09 130.85 460.43 134.61 462.1 138.48 Q 465.06 145.39 465.2 154 C 465.25 157.23 466.87 161.52 467.4 163.82 Q 470.38 176.83 467.88 189.93 Q 467.4 192.45 467.7 195.09 Q 468.61 202.98 467 210.74 Q 466.48 213.25 466.73 215.77 Q 467.94 227.99 463.46 239.26 Q 461.83 243.36 461.19 246.48 Q 459.71 253.66 458.77 255.76 Q 453.52 267.51 443.11 275.05 C 442.78437122029277 275.28231858479126 442.685593706432 275.7246700599068 442.88 276.08 Z M 404.12 273.41 C 405.9 272.23 407.93 271.62 409.48 270.32 C 412.5 267.76 414.51 265.77 416.9 262.11 Q 419.05 258.83 421.92 256.13 C 424.17 254.01 427.08 254.44 429.36 252.28 C 432.31 249.49 433.95 247.06 434.71 242.75 Q 435.87 236.08 438.59 229.88 C 442.03 222.03 439 215.66 440.63 207.89 Q 442.16 200.55 440.52 193.16 Q 440.06 191.09 441.18 186.64 C 443.24 178.44 442.24 170.15 439.48 162.24 Q 438.79 160.29 438.91 158.12 C 439.82 141.47 423.62 127.23 411.3 118.79 C 409.96 117.87 408.71 116.49 407.1 115.55 C 402.67 112.99 399.23 109.95 393.99 109.82 C 381.5 109.5 368.84 112.18 356.5 113.99 Q 349.24 115.05 341.74 111.49 Q 338.04 109.74 335.86 109.4 Q 325.8 107.86 316.85 112.39 Q 312.25 114.72 310.48 115.4 C 300.29 119.35 290.04 121.51 287.71 132.62 C 286.55 138.17 288.75 141.77 285.12 147.13 C 280.43 154.06 278.67 159.05 278.36 167.75 C 277.33 196.18 280.18 223.98 282.68 252.23 Q 283.06 256.48 282.44 260.74 Q 279.67 279.83 279.05 287.75 Q 277.87 302.88 278.99 309.51 Q 280.4 317.91 287.55 322.54 Q 289.54 323.82 289.68 325.4 Q 290.29 332.38 291.38 339.3 C 292.24 344.7 290.01 349.59 291.03 354.75 C 291.93 359.31 293.46 365.01 294.22 370.47 C 295.09 376.67 295.83 385.22 298.63 390.52 C 301.89 396.67 311.35 401.79 317.9 401.85 C 322.94 401.91 327.45 398.59 332.5 399.51 C 338.54 400.61 346.36 402.89 352.01 400.03 C 356.45 397.78 365.18 392.52 368.53 396.47 C 370.11 398.33 371.47 400.6 373.74 401.51 C 382.55 405.05 391.92 395.42 395.71 388.58 Q 397.73 384.93 399.61 382.91 C 404.95 377.18 413.03 371.58 415.72 364.03 C 417.95 357.81 421.65 352.5 424.97 346.91 C 426.1 345.02 427.41 342.01 427.43 340.22 Q 427.55 329.09 430.11 318.27 C 430.37 317.2 430.26 315.66 429.95 314.59 Q 428.03 307.91 427.32 300.99 C 427.03 298.13 424 295.14 422.33 292.9 C 420.28 290.17 417.48 288.41 415.03 286.02 C 413.39 284.42 411.55 284.03 409.98 282.07 C 407.91 279.5 405.21 277.23 403.89 274.19 Q 403.68 273.7 404.12 273.41 Z" stroke-linecap="round" />
</g>
		<g transform="matrix(1 0 0 1 -108.2007796869 3.3123948016)" id="tX6i2woRwTDFk_6okU02x"  >
<path style="stroke: none; stroke-width: 1; stroke-dasharray: none; stroke-linecap: butt; stroke-dashoffset: 0; stroke-linejoin: miter; stroke-miterlimit: 4; fill: rgb(237,142,7); fill-rule: nonzero; opacity: 1;"  transform=" translate(-141.7992203131, -253.3123948016)" d="M 112.89 309.48 C 106.89 302.09 103.77 293.02 105.63 283.48 C 106.89 277 108.58 270.36 109.34 264.11 Q 110.97 250.75 110.52 243.25 C 110.01 234.87 109.98 228.79 105.51 223.48 C 101.41 218.61 93.43 221.98 89.37 225.37 C 86.87 227.45 81.38 230.16 77.86 229.39 C 64.74 226.52 76.39 208.55 75.27 200.02 Q 74.71 195.79 71.65 192.6 C 70.15 191.03 67.08 189.89 65.87 187.38 C 60.85 176.98 64.36 165.73 65.52 154.91 Q 67.82 133.25 69.44 123.99 C 70.03 120.59 72.17 115.42 76.17 112.2 C 82.57 107.03 92.86 105.08 100.5 106.31 C 119.46 109.35 138.66 110.93 157.76 112.85 C 164.95 113.58 173.18 114.52 180.31 113.05 Q 181.5 112.81 186.51 110.98 C 195.24 107.79 203.81 106.75 210.37 114.79 Q 213.79 118.98 214.68 122.07 Q 220.86 143.52 219.87 165.71 C 219.39 176.6 216.57 187.24 216.76 198.25 C 216.87 204.42 217.73 211.61 215.81 218.1 C 213.96 224.37 205.6 226.71 199.93 226.1 C 192.65 225.33 187.05 217.36 179.56 219.65 C 170.54 222.41 169.2 233.24 168.4 241.35 C 166.66 259.19 168.76 273.95 168.22 291.75 Q 168.13 294.96 168.82 298.95 C 169.98 305.74 174.74 315.12 171.62 321.94 C 169.86 325.78 163.24 329.93 159.68 332.78 C 159.23029091341056 333.136734608237 158.9868156996557 333.6948547136136 159.03 334.27 C 160.36 350.74 159.87 367.58 157.89 384.05 Q 157.31 388.86 154.34 392.86 Q 152.51 395.32 149.1 396.84 C 143.75 399.23 134.03 402.88 129.11 398.91 C 123.29 394.24 121.08 385.38 121.1 378.25 C 121.12 368.73 122.14 358.61 119.79 349.16 C 116.42 335.61 107.9 324.77 113.04 310.32 Q 113.2 309.86 112.89 309.48 Z" stroke-linecap="round" />
</g>
		<g transform="matrix(1 0 0 1 110.2098430901 5.3712925501)" id="-8rtR8wawC_zr971yr_PB"  >
<path style="stroke: none; stroke-width: 1; stroke-dasharray: none; stroke-linecap: butt; stroke-dashoffset: 0; stroke-linejoin: miter; stroke-miterlimit: 4; fill: rgb(237,142,7); fill-rule: nonzero; opacity: 1;"  transform=" translate(-360.2098430901, -255.3712925501)" d="M 403.89 274.19 C 405.21 277.23 407.91 279.5 409.98 282.07 C 411.55 284.03 413.39 284.42 415.03 286.02 C 417.48 288.41 420.28 290.17 422.33 292.9 C 424 295.14 427.03 298.13 427.32 300.99 Q 428.03 307.91 429.95 314.59 C 430.26 315.66 430.37 317.2 430.11 318.27 Q 427.55 329.09 427.43 340.22 C 427.41 342.01 426.1 345.02 424.97 346.91 C 421.65 352.5 417.95 357.81 415.72 364.03 C 413.03 371.58 404.95 377.18 399.61 382.91 Q 397.73 384.93 395.71 388.58 C 391.92 395.42 382.55 405.05 373.74 401.51 C 371.47 400.6 370.11 398.33 368.53 396.47 C 365.18 392.52 356.45 397.78 352.01 400.03 C 346.36 402.89 338.54 400.61 332.5 399.51 C 327.45 398.59 322.94 401.91 317.9 401.85 C 311.35 401.79 301.89 396.67 298.63 390.52 C 295.83 385.22 295.09 376.67 294.22 370.47 C 293.46 365.01 291.93 359.31 291.03 354.75 C 290.01 349.59 292.24 344.7 291.38 339.3 Q 290.29 332.38 289.68 325.4 Q 289.54 323.82 287.55 322.54 Q 280.4 317.91 278.99 309.51 Q 277.87 302.88 279.05 287.75 Q 279.67 279.83 282.44 260.74 Q 283.06 256.48 282.68 252.23 C 280.18 223.98 277.33 196.18 278.36 167.75 C 278.67 159.05 280.43 154.06 285.12 147.13 C 288.75 141.77 286.55 138.17 287.71 132.62 C 290.04 121.51 300.29 119.35 310.48 115.4 Q 312.25 114.72 316.85 112.39 Q 325.8 107.86 335.86 109.4 Q 338.04 109.74 341.74 111.49 Q 349.24 115.05 356.5 113.99 C 368.84 112.18 381.5 109.5 393.99 109.82 C 399.23 109.95 402.67 112.99 407.1 115.55 C 408.71 116.49 409.96 117.87 411.3 118.79 C 423.62 127.23 439.82 141.47 438.91 158.12 Q 438.79 160.29 439.48 162.24 C 442.24 170.15 443.24 178.44 441.18 186.64 Q 440.06 191.09 440.52 193.16 Q 442.16 200.55 440.63 207.89 C 439 215.66 442.03 222.03 438.59 229.88 Q 435.87 236.08 434.71 242.75 C 433.95 247.06 432.31 249.49 429.36 252.28 C 427.08 254.44 424.17 254.01 421.92 256.13 Q 419.05 258.83 416.9 262.11 C 414.51 265.77 412.5 267.76 409.48 270.32 C 407.93 271.62 405.9 272.23 404.12 273.41 Q 403.68 273.7 403.89 274.19 Z M 366.78 224.28 C 370.8 218.1 373.66 212.7 371.99 204.99 Q 370.67 198.92 364.8 196.92 C 362.87 196.26 361.54 195.75 359.96 194.27 Q 356.14 190.71 351.23 188.8 C 346.62 187.02 343.65 193.02 343.64 196.59 Q 343.64 198.08 345.33 203.08 Q 347.2 208.56 346.9 214.5 Q 346.28 227.12 346.21 239.75 C 346.18 246.73 345.96 252.02 349.04 256.71 C 351.78 260.89 356.42 259.23 358.66 255.72 Q 361.5 251.27 363.07 246.29 C 364.35 242.21 364.28 237.12 364.72 232.56 Q 365.29 226.58 366.78 224.28 Z M 355.74 346.58 Q 359.24 341.3 362.22 337.17 Q 365.01 333.31 366.07 330.14 Q 370.54 316.73 365.88 303.32 Q 364.71 299.94 362.81 297.73 Q 360.3 294.79 357.49 293.91 C 348.66 291.13 347.37 297.2 346.8 304.25 Q 346.07 313.37 344.88 322.43 C 344.08 328.49 345.87 333.89 346.81 339.8 C 346.84864617705625 340.06197143070204 346.9891699067574 340.2961776468707 347.2 340.45 L 355.51 346.62 C 355.5453284860049 346.6466044492858 355.5900931396801 346.6573994768498 355.63366466441295 346.6498218203745 C 355.6772361891458 346.6422441638992 355.71572789972123 346.6169697686395 355.74 346.58 Z" stroke-linecap="round" />
</g>
		<g transform="matrix(1 0 0 1 108.0576850401 -26.170394497)" id="VshHRw-ii9TCdHjxbWIbp"  >
<path style="stroke: none; stroke-width: 1; stroke-dasharray: none; stroke-linecap: butt; stroke-dashoffset: 0; stroke-linejoin: miter; stroke-miterlimit: 4; fill: rgb(27,26,32); fill-rule: nonzero; opacity: 1;"  transform=" translate(-358.0576850401, -223.829605503)" d="M 371.99 204.99 C 373.66 212.7 370.8 218.1 366.78 224.28 Q 365.29 226.58 364.72 232.56 C 364.28 237.12 364.35 242.21 363.07 246.29 Q 361.5 251.27 358.66 255.72 C 356.42 259.23 351.78 260.89 349.04 256.71 C 345.96 252.02 346.18 246.73 346.21 239.75 Q 346.28 227.12 346.9 214.5 Q 347.2 208.56 345.33 203.08 Q 343.64 198.08 343.64 196.59 C 343.65 193.02 346.62 187.02 351.23 188.8 Q 356.14 190.71 359.96 194.27 C 361.54 195.75 362.87 196.26 364.8 196.92 Q 370.67 198.92 371.99 204.99 Z" stroke-linecap="round" />
</g>
		<g transform="matrix(1 0 0 1 107.0393201076 69.9365091261)" id="Mq0mDCLBfwT1s7-aojKuj"  >
<path style="stroke: none; stroke-width: 1; stroke-dasharray: none; stroke-linecap: butt; stroke-dashoffset: 0; stroke-linejoin: miter; stroke-miterlimit: 4; fill: rgb(27,26,32); fill-rule: nonzero; opacity: 1;"  transform=" translate(-357.0393201076, -319.9365091261)" d="M 355.74 346.58 C 355.71572789972123 346.6169697686395 355.6772361891458 346.6422441638992 355.63366466441295 346.6498218203745 C 355.5900931396801 346.6573994768498 355.5453284860049 346.6466044492858 355.51 346.62 L 347.2 340.45 C 346.9891699067574 340.2961776468707 346.84864617705625 340.06197143070204 346.81 339.8 C 345.87 333.89 344.08 328.49 344.88 322.43 Q 346.07 313.37 346.8 304.25 C 347.37 297.2 348.66 291.13 357.49 293.91 Q 360.3 294.79 362.81 297.73 Q 364.71 299.94 365.88 303.32 Q 370.54 316.73 366.07 330.14 Q 365.01 333.31 362.22 337.17 Q 359.24 341.3 355.74 346.58 Z" stroke-linecap="round" />
</g>
</g>
</g>
</svg>